<?xml version="1.0" encoding="UTF-8" standalone="no"?> <!-- Created with Vectornator for iOS (http://vectornator.io/) --><!DOCTYPE svg PUBLIC "-//W3C//DTD SVG 1.1//EN" "http://www.w3.org/Graphics/SVG/1.1/DTD/svg11.dtd">
<svg style="fill-rule:evenodd;clip-rule:evenodd;stroke-linecap:round;stroke-linejoin:round;" xmlns:vectornator="http://vectornator.io" xmlns:xlink="http://www.w3.org/1999/xlink" xmlns="http://www.w3.org/2000/svg" xml:space="preserve" version="1.1" viewBox="0 0 64 80">
<metadata>
<vectornator:setting key="DynamicGuides" value="1"/>
<vectornator:setting key="Units" value="Points"/>
<vectornator:setting key="GuidesVisible" value="1"/>
<vectornator:setting key="RulersVisible" value="1"/>
<vectornator:setting key="SnapToGuides" value="1"/>
<vectornator:setting key="GridSpacing" value="28.35000038146973"/>
</metadata>
<defs/>
<g id="Untitled" vectornator:layerName="Untitled">
<g opacity="1">
<path d="M13+20L27+20L27+20L27+23L27+23L13+23L13+23L13+20L13+20Z" opacity="1" fill="#ffffff"/>
<path d="M36+25.06L35.8+25L22+25L22+28L36+28L36+25.06Z" opacity="1" fill="#ffffff"/>
<path d="M6+25L20+25L20+25L20+28L20+28L6+28L6+28L6+25L6+25Z" opacity="1" fill="#ffffff"/>
<path d="M39.81+12.41C39.9985+12.6663+40.0507+12.9982+39.95+13.3L36.89+23L37+23C37.5523+23+38+23.4477+38+24L38+28L51+28C51.5523+28+52+28.4477+52+29L52+31L55.64+31L50.05+13.3C49.9493+12.9982+50.0015+12.6663+50.19+12.41C50.3788+12.1516+50.6799+11.9992+51+12L55.27+12L45+3.31L34.73+12L39+12C39.3201+11.9992+39.6212+12.1516+39.81+12.41Z" opacity="1" fill="#ffffff"/>
<path d="M20+44C20+40.134+23.134+37+27+37C30.866+37+34+40.134+34+44C34+47.866+30.866+51+27+51C23.134+51+20+47.866+20+44Z" opacity="1" fill="#ffffff"/>
<path d="M42.1+34L11.9+34C11.4962+35.9626+9.96259+37.4962+8+37.9L8+50.1C9.96259+50.5038+11.4962+52.0374+11.9+54L42.1+54C42.5038+52.0374+44.0374+50.5038+46+50.1L46+37.9C44.0374+37.4962+42.5038+35.9626+42.1+34ZM27+53C22.0294+53+18+48.9706+18+44C18+39.0294+22.0294+35+27+35C31.9706+35+36+39.0294+36+44C35.9945+48.9683+31.9683+52.9945+27+53Z" opacity="1" fill="#ffffff"/>
<path d="M56+54.1L56+41.9C54.037+41.497+52.503+39.963+52.1+38L52+38L52+58L52.1+58C52.503+56.037+54.037+54.503+56+54.1Z" opacity="1" fill="#ffffff"/>
<path d="M52+34L52+36L53+36C53.5523+36+54+36.4477+54+37C54.0049+38.6548+55.3452+39.9951+57+40C57.5523+40+58+40.4477+58+41L58+55C58+55.5523+57.5523+56+57+56C55.3452+56.0049+54.0049+57.3452+54+59C54+59.5523+53.5523+60+53+60L14+60L14+62L60+62L60+34L52+34Z" opacity="1" fill="#ffffff"/>
<path d="M50+30L4+30L4+58L50+58L50+30ZM48+51C48+51.5523+47.5523+52+47+52C45.3452+52.0049+44.0049+53.3452+44+55C44+55.5523+43.5523+56+43+56L11+56C10.4477+56+10+55.5523+10+55C9.99506+53.3452+8.6548+52.0049+7+52C6.44772+52+6+51.5523+6+51L6+37C6+36.4477+6.44772+36+7+36C8.6548+35.9951+9.99506+34.6548+10+33C10+32.4477+10.4477+32+11+32L43+32C43.5523+32+44+32.4477+44+33C44.0049+34.6548+45.3452+35.9951+47+36C47.5523+36+48+36.4477+48+37L48+51Z" opacity="1" fill="#ffffff"/>
<path d="M20+18C24.4183+18+28+14.4183+28+10C28+5.58172+24.4183+2+20+2C15.5817+2+12+5.58172+12+10C12+14.4183+15.5817+18+20+18ZM17+12L19+12L19+13L21+13L21+11L18+11C17.4477+11+17+10.5523+17+10L17+6C17+5.44772+17.4477+5+18+5L19+5L19+4L21+4L21+5L22+5C22.5523+5+23+5.44772+23+6L23+8L21+8L21+7L19+7L19+9L22+9C22.5523+9+23+9.44772+23+10L23+14C23+14.5523+22.5523+15+22+15L21+15L21+16L19+16L19+15L18+15C17.4477+15+17+14.5523+17+14L17+12Z" opacity="1" fill="#ffffff"/>
</g>
</g>
</svg>
