<?xml version="1.0" encoding="UTF-8" standalone="no"?> <!-- Created with Vectornator for iOS (http://vectornator.io/) --><!DOCTYPE svg PUBLIC "-//W3C//DTD SVG 1.1//EN" "http://www.w3.org/Graphics/SVG/1.1/DTD/svg11.dtd">
<svg style="fill-rule:evenodd;clip-rule:evenodd;stroke-linecap:round;stroke-linejoin:round;" xmlns:vectornator="http://vectornator.io" xmlns:xlink="http://www.w3.org/1999/xlink" xmlns="http://www.w3.org/2000/svg" xml:space="preserve" version="1.1" viewBox="0 0 100 125">
<metadata>
<vectornator:setting key="DynamicGuides" value="1"/>
<vectornator:setting key="Units" value="Points"/>
<vectornator:setting key="GuidesVisible" value="1"/>
<vectornator:setting key="RulersVisible" value="1"/>
<vectornator:setting key="SnapToGuides" value="1"/>
<vectornator:setting key="GridSpacing" value="28.35000038146973"/>
</metadata>
<defs/>
<g id="Untitled" vectornator:layerName="Untitled">
<path d="M23.699+19.45C23.699+15.088+20.165+11.581+15.804+11.581C11.456+11.581+7.936+15.088+7.936+19.45C7.936+23.797+11.456+27.332+15.804+27.332C20.165+27.332+23.699+23.797+23.699+19.45L23.699+19.45Z" opacity="1" fill="#ffffff"/>
<path d="M2.468+57.337C2.468+59.872+4.521+61.938+7.055+61.951C7.069+61.951+7.069+85.609+7.069+85.609C7.069+88.155+9.136+90.211+11.67+90.211C14.204+90.211+16.271+88.155+16.271+85.609C16.271+88.155+18.338+90.211+20.872+90.211C23.406+90.211+25.473+88.155+25.473+85.609L25.473+84.796C17.498+75.581+17.498+61.898+25.473+52.684L25.473+42.161L30.314+48.389C32.475+46.936+34.835+45.841+37.342+45.121L26.979+31.812C26.286+30.932+25.219+30.399+24.085+30.399L19.271+30.399L15.804+35.399L12.364+30.399L6.148+30.399C4.121+30.399+2.467+32.05+2.467+34.08L2.467+57.337" opacity="1" fill="#ffffff"/>
<path d="M68.334+72.326L91.379+72.326C92.485+72.326+93.379+73.208+93.379+74.3L93.379+78.821C93.379+79.942+92.485+80.822+91.379+80.822L65.413+80.822C66.907+78.194+67.894+75.313+68.334+72.326Z" opacity="1" fill="#ffffff"/>
<path d="M67.787+62.472L93.379+62.472C94.473+62.472+95.366+63.366+95.366+64.473L95.366+68.994C95.366+70.088+94.472+70.995+93.379+70.995L68.494+70.995C68.761+68.127+68.521+65.258+67.787+62.472Z" opacity="1" fill="#ffffff"/>
<path d="M62.586+52.643L89.352+52.643C90.446+52.643+91.338+53.523+91.338+54.644L91.338+59.151C91.338+60.258+90.445+61.138+89.352+61.138L67.387+61.138C66.374+58.017+64.746+55.122+62.586+52.643Z" opacity="1" fill="#ffffff"/>
<path d="M56.265+32.946L95.473+32.946C96.58+32.946+97.473+33.851+97.473+34.947L97.473+39.468C97.473+40.56+96.58+41.468+95.473+41.468L56.265+41.468C55.159+41.468+54.264+40.56+54.264+39.468L54.264+34.947C54.264+33.852+55.158+32.946+56.265+32.946Z" opacity="1" fill="#ffffff"/>
<path d="M54.397+23.117L93.619+23.117C94.713+23.117+95.605+23.997+95.605+25.117L95.605+29.624C95.605+30.731+94.712+31.626+93.619+31.626L54.397+31.626C53.304+31.626+52.397+30.731+52.397+29.624L52.397+25.117C52.397+23.997+53.305+23.117+54.397+23.117Z" opacity="1" fill="#ffffff"/>
<path d="M61.332+51.309C57.305+47.308+51.997+44.815+46.343+44.283C46.57+43.416+47.356+42.801+48.277+42.801L87.485+42.801C88.592+42.801+89.485+43.682+89.485+44.788L89.485+49.322C89.485+50.416+88.592+51.309+87.485+51.309C87.485+51.309+61.332+51.309+61.332+51.309Z" opacity="1" fill="#ffffff"/>
<path d="M65.521+68.739C65.521+80.609+55.906+90.211+44.05+90.211C32.181+90.211+22.566+80.609+22.566+68.739C22.566+56.871+32.181+47.255+44.05+47.255C55.905+47.255+65.521+56.871+65.521+68.739L65.521+68.739ZM43.969+65.993C43.449+65.993+42.928+65.898+42.409+65.764C41.969+65.631+41.528+65.444+41.142+65.178C40.768+64.924+40.448+64.604+40.221+64.218C40.034+63.898+39.941+63.576+39.941+63.204C39.941+62.856+40.034+62.51+40.221+62.204C40.448+61.817+40.768+61.498+41.142+61.23C41.528+60.99+41.968+60.789+42.409+60.656C42.942+60.509+43.502+60.43+44.049+60.43C44.595+60.43+45.142+60.508+45.676+60.656C46.129+60.789+46.57+60.99+46.943+61.23C47.129+61.364+47.303+61.522+47.463+61.67L52.33+59.47C51.877+58.737+51.33+58.081+50.678+57.521C49.783+56.774+48.783+56.189+47.703+55.803C46.983+55.549+46.263+55.362+45.516+55.269L45.516+53.735L42.581+53.735L42.581+55.269C41.834+55.362+41.101+55.549+40.407+55.803C39.313+56.189+38.301+56.774+37.42+57.521C36.567+58.269+35.86+59.176+35.367+60.203C34.926+61.137+34.673+62.164+34.673+63.204C34.673+64.256+34.926+65.285+35.367+66.219C35.86+67.258+36.567+68.151+37.42+68.912C38.301+69.658+39.314+70.245+40.407+70.618C41.541+71.046+42.755+71.231+43.968+71.258C44.542+71.232+45.115+71.325+45.675+71.472C46.128+71.606+46.569+71.806+46.942+72.074C47.329+72.326+47.635+72.66+47.876+73.046C48.049+73.341+48.155+73.688+48.155+74.035C48.155+74.393+48.049+74.741+47.876+75.046C47.636+75.421+47.329+75.755+46.942+76.009C46.568+76.275+46.128+76.475+45.675+76.595C45.141+76.742+44.594+76.821+44.048+76.821C43.501+76.821+42.941+76.743+42.408+76.595C41.968+76.475+41.527+76.275+41.141+76.009C40.967+75.875+40.793+75.741+40.634+75.581L35.766+77.767C36.206+78.516+36.766+79.155+37.419+79.728C38.3+80.476+39.313+81.062+40.406+81.448C41.1+81.716+41.833+81.877+42.58+81.982L42.58+83.503L45.515+83.503L45.515+81.982C46.261+81.877+46.981+81.715+47.702+81.448C48.782+81.062+49.782+80.476+50.677+79.728C51.53+78.995+52.238+78.077+52.717+77.061C53.184+76.114+53.41+75.076+53.41+74.036C53.41+72.995+53.183+71.955+52.717+71.021C52.238+70.007+51.529+69.087+50.677+68.352C49.782+67.593+48.782+67.006+47.702+66.621C46.528+66.207+45.288+65.994+44.048+65.994" opacity="1" fill="#ffffff"/>
</g>
</svg>
