<?xml version="1.0" encoding="UTF-8" standalone="no"?> <!-- Created with Vectornator for iOS (http://vectornator.io/) --><!DOCTYPE svg PUBLIC "-//W3C//DTD SVG 1.1//EN" "http://www.w3.org/Graphics/SVG/1.1/DTD/svg11.dtd">
<svg style="fill-rule:evenodd;clip-rule:evenodd;stroke-linecap:round;stroke-linejoin:round;" xmlns:vectornator="http://vectornator.io" xmlns:xlink="http://www.w3.org/1999/xlink" xmlns="http://www.w3.org/2000/svg" xml:space="preserve" version="1.1" viewBox="0 0 64 80">
<metadata>
<vectornator:setting key="DynamicGuides" value="1"/>
<vectornator:setting key="Units" value="Points"/>
<vectornator:setting key="GuidesVisible" value="1"/>
<vectornator:setting key="RulersVisible" value="1"/>
<vectornator:setting key="SnapToGuides" value="1"/>
<vectornator:setting key="GridSpacing" value="28.35000038146973"/>
</metadata>
<defs/>
<g id="Untitled" vectornator:layerName="Untitled">
<g opacity="1">
<path d="M60.289+39.1C59.7947+38.8529+59.1937+39.0535+58.947+39.548C58.8245+39.7925+58.6022+39.9719+58.3373+40.04C58.0725+40.1081+57.7912+40.0581+57.566+39.903C57.4257+39.8107+57.2636+39.757+57.096+39.747C57.3259+38.3607+57.313+36.9449+57.058+35.563L56.481+32.5C55.5574+27.5732+51.2566+24.0022+46.244+24L40.284+24C37.2658+26.6611+32.7392+26.6611+29.721+24L21+24C19.4836+23.9977+18.0129+24.5195+16.837+25.477C13.5927+28.1333+11.1676+31.6547+9.843+35.633C9.20374+37.5439+8.13032+39.2807+6.707+40.707C6.51951+40.8945+6.26519+40.9999+6+41L4+41L4+47L8+47C8.18146+47.0001+8.35949+47.0495+8.515+47.143L13.277+50L19+50C19.5523+50+20+50.4477+20+51L20+55C20+55.5523+20.4477+56+21+56L23+56C23.5523+56+24+55.5523+24+55L24+51C24+50.6615+24.1712+50.346+24.455+50.1615C24.7388+49.977+25.0967+49.9486+25.406+50.086L25.877+50.295C31.0492+52.59+36.9508+52.59+42.123+50.295L42.594+50.086C42.9033+49.9486+43.2612+49.977+43.545+50.1615C43.8288+50.346+44+50.6615+44+51L44+55C44+55.5523+44.4477+56+45+56L47+56C47.5523+56+48+55.5523+48+55L48+51C48+50.4477+48.4477+50+49+50C54.348+50+56.546+45.829+56.907+41.815C58.3436+42.4618+60.0345+41.8577+60.736+40.447C60.8563+40.2093+60.8768+39.9333+60.7929+39.6805C60.709+39.4276+60.5276+39.2186+60.289+39.1ZM18.176+36.7C17.7855+37.0904+17.1525+37.0904+16.762+36.7C16.0473+35.9872+14.8907+35.9872+14.176+36.7C13.7836+37.079+13.1599+37.0736+12.7742+36.6878C12.3884+36.3021+12.383+35.6784+12.762+35.286C14.2583+33.7941+16.6797+33.7941+18.176+35.286C18.3656+35.4738+18.4723+35.7296+18.4723+35.9965C18.4723+36.2634+18.3656+36.5192+18.176+36.707L18.176+36.7ZM24+32C24.5523+32+25+32.4477+25+33C25+33.5523+24.5523+34+24+34C21.7979+33.9948+19.7254+32.9586+18.4+31.2L17.2+29.6C16.9727+29.297+16.9362+28.8916+17.1056+28.5528C17.275+28.214+17.6212+28+18+28L24+28C24.5523+28+25+28.4477+25+29C25+29.5523+24.5523+30+24+30L20+30C20.9462+31.2567+22.4269+31.997+24+32Z" opacity="1" fill="#ffffff"/>
<path d="M32+12.836C29.6153+14.2029+28.4495+17.0038+29.1601+19.659C29.8707+22.3143+32.2797+24.1585+35.0283+24.1516C37.777+24.1448+40.1766+22.2885+40.8739+19.6298C41.5713+16.971+40.3915+14.176+38+12.821L38+9L36+9L36+12.087C35.3368+11.983+34.6609+11.99+34+12.108L34+9L32+9L32+12.836ZM36.072+15.136C36.4522+14.7352+37.0854+14.7186+37.486+15.099C39.0855+16.6209+39.1521+19.15+37.635+20.754C37.2548+21.1547+36.6217+21.1712+36.221+20.791C35.8203+20.4108+35.8038+19.7777+36.184+19.377C36.9438+18.5756+36.9102+17.31+36.109+16.55C35.7082+16.1698+35.6916+15.5366+36.072+15.136ZM33.245+15.211C33.6458+15.5912+33.6624+16.2244+33.282+16.625C32.522+17.4262+32.5551+18.6917+33.356+19.452C33.6327+19.6937+33.7546+20.0676+33.6735+20.4259C33.5924+20.7842+33.3214+21.0692+32.9676+21.1682C32.6138+21.2672+32.2343+21.1642+31.979+20.9C30.3765+19.3793+30.3103+16.8474+31.831+15.245C32.212+14.8451+32.8452+14.8298+33.245+15.211Z" opacity="1" fill="#ffffff"/>
<path d="M32+5L34+5L34+5L34+7L34+7L32+7L32+7L32+5L32+5Z" opacity="1" fill="#ffffff"/>
<path d="M36+5L38+5L38+5L38+7L38+7L36+7L36+7L36+5L36+5Z" opacity="1" fill="#ffffff"/>
</g>
</g>
</svg>
