<?xml version="1.0" encoding="UTF-8" standalone="no"?> <!-- Created with Vectornator for iOS (http://vectornator.io/) --><!DOCTYPE svg PUBLIC "-//W3C//DTD SVG 1.1//EN" "http://www.w3.org/Graphics/SVG/1.1/DTD/svg11.dtd">
<svg style="fill-rule:evenodd;clip-rule:evenodd;stroke-linecap:round;stroke-linejoin:round;" xmlns:vectornator="http://vectornator.io" xmlns:xlink="http://www.w3.org/1999/xlink" xmlns="http://www.w3.org/2000/svg" xml:space="preserve" version="1.1" viewBox="0 0 64 80">
<metadata>
<vectornator:setting key="DynamicGuides" value="1"/>
<vectornator:setting key="Units" value="Points"/>
<vectornator:setting key="GuidesVisible" value="1"/>
<vectornator:setting key="RulersVisible" value="1"/>
<vectornator:setting key="SnapToGuides" value="1"/>
<vectornator:setting key="GridSpacing" value="28.35000038146973"/>
</metadata>
<defs/>
<g id="Untitled" vectornator:layerName="Untitled">
<g opacity="1">
<path d="M44.87+18.85C46.6607+20.8657+48.0248+23.223+48.88+25.78C50.5467+25.359+52.1705+24.7832+53.73+24.06C51.2516+21.6191+48.2079+19.8293+44.87+18.85Z" opacity="1" fill="#ffffff"/>
<path d="M59.95+38C59.7454+33.4459+58.0561+29.084+55.14+25.58C53.337+26.4797+51.4429+27.1837+49.49+27.68C50.4351+31.0405+50.9393+34.5095+50.99+38L59.95+38Z" opacity="1" fill="#ffffff"/>
<path d="M18.05+38L27.01+38C27.0607+34.5095+27.5649+31.0405+28.51+27.68C26.5566+27.1854+24.6623+26.4813+22.86+25.58C19.9439+29.084+18.2546+33.4459+18.05+38Z" opacity="1" fill="#ffffff"/>
<path d="M33.13+18.85C29.7928+19.8257+26.749+21.6121+24.27+24.05C25.8274+24.781+27.4516+25.3603+29.12+25.78C29.9776+23.2241+31.3414+20.8672+33.13+18.85Z" opacity="1" fill="#ffffff"/>
<path d="M40+18.11L40+26.97C42.3068+26.9256+44.6054+26.6813+46.87+26.24C45.22+21.8+42.76+18.72+40+18.11Z" opacity="1" fill="#ffffff"/>
<path d="M58+8C58+5.79086+56.2091+4+54+4C51.7909+4+50+5.79086+50+8L50+12L58+12L58+8Z" opacity="1" fill="#ffffff"/>
<path d="M40+47.94L40+49.03C42.5191+49.0839+45.0287+49.3583+47.5+49.85C48.4162+46.6443+48.9137+43.3334+48.98+40L47.94+40C47.4667+44.1734+44.1734+47.4667+40+47.94Z" opacity="1" fill="#ffffff"/>
<path d="M16+39C16.016+26.3041+26.3041+16.016+39+16C42.094+15.9945+45.1565+16.6206+48+17.84L48+8C48.0014+6.52217+48.55+5.09719+49.54+4L16+4C13.7909+4+12+5.79086+12+8L12+41L16.09+41C16.04+40.34+16+39.67+16+39ZM25+17L20+17L20+15L25+15L25+17ZM15+7L25+7L25+9L15+9L15+7ZM15+11L31+11L31+13L15+13L15+11ZM15+15L18+15L18+17L15+17L15+15Z" opacity="1" fill="#ffffff"/>
<path d="M47.5+28.15C45.0287+28.6417+42.5191+28.9161+40+28.97L40+30.06C44.1734+30.5333+47.4667+33.8266+47.94+38L48.98+38C48.9137+34.6666+48.4162+31.3557+47.5+28.15Z" opacity="1" fill="#ffffff"/>
<path d="M40+51.03L40+59.89C42.76+59.28+45.22+56.2+46.87+51.76C44.6054+51.3187+42.3068+51.0744+40+51.03Z" opacity="1" fill="#ffffff"/>
<path d="M38+30.06L38+28.97C35.4808+28.9172+32.9711+28.6428+30.5+28.15C29.5838+31.3557+29.0863+34.6666+29.02+38L30.06+38C30.5333+33.8266+33.8266+30.5333+38+30.06Z" opacity="1" fill="#ffffff"/>
<path d="M44.87+59.15C48.2079+58.1707+51.2516+56.3809+53.73+53.94C52.1705+53.2168+50.5467+52.641+48.88+52.22C48.0248+54.777+46.6607+57.1343+44.87+59.15Z" opacity="1" fill="#ffffff"/>
<path d="M46+39C46+35.134+42.866+32+39+32C35.134+32+32+35.134+32+39C32+42.866+35.134+46+39+46C42.8642+45.9956+45.9956+42.8642+46+39ZM42+37L40+37L40+36L38+36L38+38L41+38C41.5523+38+42+38.4477+42+39L42+43C42+43.5523+41.5523+44+41+44L40+44L40+45L38+45L38+44L37+44C36.4477+44+36+43.5523+36+43L36+41L38+41L38+42L40+42L40+40L37+40C36.4477+40+36+39.5523+36+39L36+35C36+34.4477+36.4477+34+37+34L38+34L38+33L40+33L40+34L41+34C41.5523+34+42+34.4477+42+35L42+37Z" opacity="1" fill="#ffffff"/>
<path d="M49.49+50.32C51.4429+50.8163+53.337+51.5203+55.14+52.42C58.0561+48.916+59.7454+44.5541+59.95+40L50.99+40C50.9393+43.4905+50.4351+46.9595+49.49+50.32Z" opacity="1" fill="#ffffff"/>
<path d="M30.06+40L29.02+40C29.0863+43.3334+29.5838+46.6443+30.5+49.85C32.9711+49.3572+35.4808+49.0828+38+49.03L38+47.94C33.8266+47.4667+30.5333+44.1734+30.06+40Z" opacity="1" fill="#ffffff"/>
<path d="M38+59.89L38+51.03C35.6932+51.0744+33.3946+51.3187+31.13+51.76C32.78+56.2+35.24+59.28+38+59.89Z" opacity="1" fill="#ffffff"/>
<path d="M4+43L4+46C4+48.2091+5.79086+50+8+50L18.81+50C17.6119+47.8182+16.784+45.4528+16.36+43L4+43Z" opacity="1" fill="#ffffff"/>
<path d="M27.01+40L18.05+40C18.2546+44.5541+19.9439+48.916+22.86+52.42C24.6623+51.5187+26.5566+50.8146+28.51+50.32C27.5649+46.9595+27.0607+43.4905+27.01+40Z" opacity="1" fill="#ffffff"/>
<path d="M24.27+53.95C26.749+56.3879+29.7928+58.1743+33.13+59.15C31.3414+57.1328+29.9776+54.7759+29.12+52.22C27.4516+52.6397+25.8274+53.219+24.27+53.95Z" opacity="1" fill="#ffffff"/>
<path d="M38+18.11C35.24+18.72+32.78+21.8+31.13+26.24C33.3946+26.6813+35.6932+26.9256+38+26.97L38+18.11Z" opacity="1" fill="#ffffff"/>
</g>
</g>
</svg>
